<!DOCTYPE svg PUBLIC "-//W3C//DTD SVG 20010904//EN" "http://www.w3.org/TR/2001/REC-SVG-20010904/DTD/svg10.dtd">
<svg version="1.0" xmlns="http://www.w3.org/2000/svg" width="720px" height="830px" viewBox="0 0 7200 8300" preserveAspectRatio="xMidYMid meet">
<g id="layer101" fill="#feca00" stroke="none">
 <path d="M6505 8145 c-75 -31 -122 -79 -178 -180 l-44 -80 -404 -283 c-222 -155 -413 -288 -423 -295 -18 -12 -9 -26 119 -190 76 -98 142 -176 146 -175 5 2 232 176 506 388 329 256 508 400 530 430 59 80 77 178 48 261 -47 133 -162 181 -300 124z m-77 -461 c38 -26 23 -84 -22 -84 -23 0 -56 27 -56 47 0 14 35 53 48 53 4 0 18 -7 30 -16z m-190 -140 c24 -17 29 -53 10 -72 -27 -27 -88 -3 -88 34 0 15 35 54 48 54 4 0 18 -7 30 -16z m-184 -166 c9 -12 16 -26 16 -30 0 -13 -39 -48 -54 -48 -37 0 -61 61 -34 88 19 19 55 14 72 -10z"/>
 <path d="M3780 6232 c-872 -559 -1621 -1042 -1665 -1073 -323 -227 -509 -454 -561 -687 -24 -109 -15 -296 20 -417 32 -107 198 -525 208 -525 5 0 8 8 8 18 0 10 11 50 24 88 74 217 233 428 506 668 163 144 364 303 955 757 275 211 924 710 1443 1108 518 398 942 727 942 730 0 3 -14 21 -31 39 l-29 33 -58 -44 c-844 -645 -3116 -2369 -3126 -2373 -16 -6 -42 24 -30 35 5 5 718 550 1584 1211 866 662 1579 1206 1584 1211 8 7 -169 239 -182 239 -4 -1 -720 -458 -1592 -1018z"/>
 <path d="M2470 7183 c-159 -4 -392 -22 -449 -34 l-51 -11 -2 -155 -3 -156 -145 -32 c-128 -30 -229 -57 -352 -96 -21 -7 -40 -10 -41 -8 -2 2 -37 63 -77 134 -40 72 -73 131 -74 132 -4 5 -296 -120 -401 -172 -166 -81 -156 -56 -91 -230 31 -81 55 -149 54 -150 -2 -1 -40 -24 -85 -50 -84 -49 -293 -200 -293 -211 0 -8 279 -362 291 -370 5 -3 35 15 66 39 314 241 742 435 1141 517 239 48 410 63 672 57 330 -8 554 -47 831 -143 l126 -44 234 141 c129 78 236 143 239 146 8 8 -37 39 -124 87 l-83 46 38 147 c21 81 35 150 31 154 -11 9 -386 136 -472 159 -119 32 -108 40 -174 -125 -32 -80 -63 -145 -69 -145 -7 0 -48 7 -92 15 -118 23 -319 45 -407 45 -43 0 -78 2 -78 4 0 2 -9 71 -20 152 -11 82 -20 152 -20 157 0 4 -3 6 -7 5 -5 -1 -55 -3 -113 -5z"/>
 <path d="M4679 6015 c-172 -136 -315 -250 -317 -254 -1 -4 46 -50 105 -103 495 -443 830 -1072 923 -1735 110 -783 -106 -1565 -606 -2193 -88 -110 -325 -347 -434 -434 -323 -256 -722 -457 -1085 -546 -49 -12 -97 -23 -106 -26 -13 -4 -9 -34 33 -231 27 -125 51 -229 53 -232 9 -9 125 23 343 94 l223 73 80 -137 c45 -75 82 -137 84 -139 7 -8 508 244 544 274 2 2 -25 71 -59 154 -35 82 -61 152 -59 153 2 2 32 22 65 45 102 68 214 160 315 259 l97 95 123 -97 124 -97 118 123 c122 127 275 304 284 327 4 8 -40 59 -107 127 l-113 113 77 119 c43 65 113 191 158 281 44 89 82 162 84 162 2 0 71 -16 153 -35 82 -19 151 -35 154 -35 13 0 187 555 187 598 0 6 -66 36 -147 67 -82 32 -149 59 -151 60 -1 1 5 33 14 71 27 118 54 323 61 466 6 128 7 137 27 142 12 2 81 12 155 22 l134 18 -7 121 c-9 153 -25 320 -39 410 l-12 70 -164 5 -164 5 -53 205 c-29 113 -69 254 -89 314 -20 59 -35 110 -33 111 2 2 62 38 133 80 72 42 131 78 133 79 8 8 -225 457 -276 534 -7 11 -40 1 -155 -48 -81 -34 -151 -59 -156 -56 -5 4 -31 37 -57 74 -64 89 -180 235 -254 316 -33 37 -60 71 -60 76 0 5 39 60 86 121 47 61 87 116 90 123 2 6 -29 44 -69 84 l-73 73 -315 -246z"/>
 <path d="M2423 3308 c2 -7 55 -168 116 -358 62 -190 116 -358 121 -373 9 -28 6 -31 -316 -270 l-325 -242 407 -5 406 -5 119 -370 c66 -203 121 -374 123 -380 1 -5 60 161 129 370 l126 380 406 5 406 5 -325 242 c-193 144 -324 248 -321 255 28 76 243 753 241 756 -2 2 -150 -100 -327 -227 -178 -127 -330 -228 -338 -226 -7 3 -154 106 -326 230 -173 124 -317 225 -320 225 -4 0 -5 -6 -2 -12z"/>
 </g>

</svg>